<?xml version="1.0" encoding="utf-8"?>
<!-- Generator: Adobe Illustrator 16.0.0, SVG Export Plug-In . SVG Version: 6.00 Build 0)  -->
<!DOCTYPE svg PUBLIC "-//W3C//DTD SVG 1.1//EN" "http://www.w3.org/Graphics/SVG/1.1/DTD/svg11.dtd">
<svg version="1.1" id="Calque_1" xmlns="http://www.w3.org/2000/svg" xmlns:xlink="http://www.w3.org/1999/xlink" x="0px" y="0px"
	 width="1080px" height="500px" viewBox="0 0 1080 500" enable-background="new 0 0 1080 500" xml:space="preserve">
<g>
	<g>
		<path fill="#FFFFFF" d="M151.989,49.705c-2.069,2.599-4.192,4.939-6.817,7.277c-2.652,2.45-5.519,4.95-8.531,7.549
			c-5.905,5.283-12.478,11.288-17.418,19.587c-5.009,8.236-7.201,18.78-5.825,28.025c1.196,9.363,5.102,17.643,10.187,24.484
			c5.194,6.798,11.467,12.484,18.715,16.241c-8.62-13.6-14.258-28.354-13.474-41.493c0.416-6.54,2.42-12.088,6.061-17.074
			c3.613-5.039,8.851-9.76,14.696-14.872c11.292-9.635,27.186-25.125,25.179-46.786c-0.625-5.247-2.807-10.475-6.127-14.33
			c-3.283-3.896-7.221-6.523-10.997-8.424c-7.671-3.769-14.853-5.613-21.789-9.89c3.832,7.419,11.152,12.52,16.261,17.805
			c5.456,5.257,7.902,10.468,7.281,15.712C158.972,38.78,156.052,44.573,151.989,49.705z"/>
		<path fill="#FFFFFF" d="M99.354,141.901c-6.467-8.778-11.169-18.381-12.343-28.131c-1.181-9.731,1.812-19.032,8.11-26.134
			c6.53-7.36,15.425-14.516,21.693-24.138c3.122-4.761,5.879-10.468,5.74-16.796c-0.284-6.428-4.302-11.553-8.845-14.403
			c3.151,4.526,5.039,9.543,4.058,14.125c-0.88,4.576-3.812,8.623-7.036,12.419c-6.716,7.654-15.058,13.748-23.003,22.279
			c-3.846,4.603-6.943,10.098-8.429,16.096c-1.368,5.991-1.415,12.286,0.179,18.02C82.482,126.781,90.116,136.145,99.354,141.901z"
			/>
		<path fill="#FFFFFF" d="M161.499,94.726c-2.92,4.479-4.874,9.75-5.354,15.137c-0.416,5.369,0.258,10.732,2.104,15.526
			c3.527,9.646,10.325,17.425,18.519,22.253c-5.39-7.823-9.489-16.023-11.146-24.382c-1.696-8.379-0.305-16.479,4.07-23.075
			c4.384-6.61,11.816-12.436,18.198-19.75c3.204-3.644,6.187-7.889,7.893-12.756c1.663-4.887,1.689-10.246-0.06-14.707
			c-0.599,9.85-6.368,16.347-13.189,21.968C175.802,80.739,167.625,85.765,161.499,94.726z"/>
	</g>
	<g>
		<g>
			<path fill="#3180B9" d="M412.366,134.138c7.787,0,12.333,10.264,14.06,15.938c0.866,2.837,4.331,3.055,6.927,3.055
				c1.729,0,6.92-0.437,6.92-3.055c0-15.719-16.657-23.575-30.286-23.575c-20.113,0-33.745,12.221-33.745,32.962
				c0,41.696,44.13,81.646,44.13,113.737c0,5.075-2.311,10.756-6.232,14.277c5.142,0.647,9.229,4.622,10.032,9.73
				c9.694-3.796,17.401-11.113,17.401-23.132c0-32.747-46.727-75.753-46.727-116.796
				C394.845,145.492,399.603,134.138,412.366,134.138z"/>
			<path fill="#3180B9" d="M376.241,260.972c-3.893,0-8.002,0.873-8.002,5.677c0,13.57,10.386,24.987,22.622,30.42
				c2.97-3.264,6.626-5.869,10.763-7.553C393.096,283.674,388.121,260.972,376.241,260.972z"/>
			<path fill="#3180B9" d="M507.336,169.503c-5.188,0-10.379,1.092-15.576,1.528c0.218-2.401,0.218-4.802,0.218-7.202
				c0-0.654-0.218-1.745-0.437-2.403c-2.162-3.276-4.104-3.928-7.998-3.928c-9.737,0-10.171,8.514-10.171,16.154
				c-3.458,0.434-23.142,1.528-23.142,5.893c0,3.276,5.625,3.931,8.002,3.931c4.761,0,9.734-0.872,14.488-1.527
				c-3.458,20.956-4.973,49.557-4.973,74.44c0,12.01-0.859,43.226,16.873,43.226c2.816,0,9.955-0.655,9.955-4.586
				c0-3.273-2.816-6.11-3.68-9.169c-3.247-10.479-3.459-22.92-3.459-33.838c0-24.447,2.159-48.678,3.893-72.913
				c2.592-0.218,24.447-0.873,22.066-6.986C512.094,168.849,511.016,169.503,507.336,169.503z"/>
			<path fill="#3180B9" d="M546.713,170.595c1.51,0,6.055,0,8.004-2.183c6.27-6.547,11.461-15.5,14.707-15.5
				c0.863-0.437,2.377-1.31,2.377-2.619c0-2.4-4.969-3.71-8-3.71c-4.543,0-8.656,1.964-12.326,5.237
				c-0.871,0.655-12.119,10.915-12.119,14.628C539.356,169.503,544.113,170.595,546.713,170.595z"/>
			<path fill="#3180B9" d="M595.383,257.698c-0.215-3.276-3.029-3.495-5.408-3.495c-8.432,0-20.766,28.161-35.043,28.161
				c-9.734,0-13.629-22.044-13.846-29.467l2.816,0.219c17.736,0,30.068-25.106,30.068-40.606c0-11.787-6.057-19.432-18.172-19.432
				c-25.744,0-33.534,38.427-33.534,58.51c0,21.175,7.79,39.727,31.801,39.727c18.383,0,30.719-14.188,39.154-29.033
				C594.088,260.754,595.383,259.662,595.383,257.698z M556.01,200.067c4.551,0.655,3.895,7.642,3.895,12.006
				c0,11.354-7.137,41.479-15.791,34.06l-3.027-2.622C541.732,232.808,544.332,198.101,556.01,200.067z"/>
			<path fill="#3180B9" d="M646.656,268.831c-2.377,0-4.322-2.615-6.055-4.583c-1.297-1.527-3.246-1.967-5.191-1.967
				c-1.518,0-6.061,0.439-6.061,2.622c2.6,8.081,9.955,10.478,17.307,10.478c16.875,0,34.83-5.677,34.83-32.525
				c0-17.246-8.006-36.023-28.119-36.023c-14.717,0-25.529,12.228-32.451,24.015c-1.516-7.859-1.086-17.242-1.516-25.32
				c0-5.459-4.543-6.769-8.438-6.769c-6.92,0-9.086,3.273-9.086,9.824c0,18.535,1.771,71.838,5.641,103.643h22.709
				c-1.344-16.608-3.475-36.715-3.475-47.321c0-15.716,9.959-51.088,26.615-51.088c11.031,0,13.842,22.709,13.842,32.528
				C667.209,258.135,655.098,268.831,646.656,268.831z"/>
			<path fill="#3180B9" d="M745.307,211.634c-14.707,0-25.311,10.702-32.449,22.054c0.65-32.965,1.303-66.366,6.275-99.113
				l1.947-2.183c0-5.892-4.322-7.641-9.301-7.641c-3.025,0-6.92,0.437-8.223,3.713c-6.707,17.246-9.084,98.016-9.084,120.284
				c0,2.84,0,6.335,0,10.041c0,10.915,0.215,23.797,3.248,31.656c2.377,2.183,5.188,3.055,8.434,3.055
				c2.807,0,8.223-0.872,9.084-4.146c2.594-11.133,0.432-68.331,27.039-67.458c20.557,0.658,13.629,54.794,19.254,67.895
				l-0.215-0.219c0.865,2.404,4.109,2.619,6.271,2.619c2.816,0,4.549-0.655,6.275-2.837
				C771.701,269.271,774.082,211.634,745.307,211.634z"/>
			<path fill="#3180B9" d="M845.471,237.834l1.082,0.218c3.676,0,4.543-1.964,4.543-5.459c0-15.282-20.336-22.92-33.098-22.92
				c-20.99,0-31.154,18.337-31.154,37.548c0,14.846,6.277,39.078,24.881,39.078c12.764,0,19.684-11.133,23.361-22.051
				c1.732,9.388,0,19.211,12.113,19.211c3.465,0,9.523-0.655,9.523-5.459c0-1.742-0.652-3.273-1.732-5.678
				C852.176,260.754,849.58,248.966,845.471,237.834z M836.17,229.756c-13.848,0-10.385,32.525-24.236,47.593
				c-7.564-7.645-10.164-21.178-10.164-31.655c0-10.264,3.68-25.761,14.926-29.034c0.865,0.215,2.596-0.222,3.684-0.222
				c7.35,0,18.602,7.642,21.199,14.409C839.846,229.975,838.111,229.756,836.17,229.756z"/>
			<path fill="#3180B9" d="M922.055,189.368c-15.574,0-27.691,26.633-32.879,39.075l-0.438-3.273
				c-0.215-5.237-4.539-6.328-11.682-6.328c-2.158,0-4.328,1.742-5.623,3.273c-1.082,1.745-1.297,5.237-1.297,7.423
				c0,11.79-3.68,50.208,12.547,50.208c3.029,0,13.193-0.215,12.33-4.146c-6.924-34.053,8.652-69.203,20.986-68.982
				c20.115,0.434,2.811,84.482,19.469,84.482c1.51,0,8.648-1.745,8.648-4.149c0-4.146-1.732-9.387-2.377-13.751
				C939.578,257.266,943.898,189.368,922.055,189.368z"/>
			<path fill="#3180B9" d="M1024.814,254.203c-8.438,0-20.768,28.161-35.049,28.161c-9.734,0-13.625-22.044-13.84-29.467
				l2.811,0.219c17.742,0,30.068-25.106,30.068-40.606c0-11.787-6.055-19.432-18.172-19.432c-25.738,0-33.531,38.427-33.531,58.51
				c0,21.175,7.793,39.727,31.801,39.727c18.389,0,30.717-14.188,39.158-29.033c0.867-1.527,2.162-2.619,2.162-4.583
				C1030.006,254.422,1027.195,254.203,1024.814,254.203z M990.85,200.067c4.545,0.655,3.896,7.642,3.896,12.006
				c0,11.354-7.139,41.479-15.793,34.06l-3.027-2.622C976.574,232.808,979.172,198.101,990.85,200.067z"/>
			<path fill="#3180B9" d="M1066.785,235.869c3.893,0,10.172-0.657,10.172-5.895c0-8.729,1.725-17.028-10.604-17.028
				c-8.654,0-9.52,3.055-9.52,17.464C1056.834,235.212,1063.328,235.869,1066.785,235.869z"/>
			<path fill="#3180B9" d="M1078.471,269.704c-1.732-1.524-4.549-1.964-6.93-1.964c-9.152,0-7.959,5.69-25.162,23.598
				c4.363,2.269,8.174,5.456,11.191,9.314c5.049-2.665,8.012-9.4,17.654-21.562c1.295-2.833,4.113-5.016,4.543-7.638
				C1079.549,270.58,1079.338,270.141,1078.471,269.704z"/>
		</g>
		<path fill="#FFFFFF" d="M412.69,483.5c1.584,0,2.82,1.244,2.82,2.86v8.584c0,1.61-1.236,2.863-2.82,2.863
			c-11.479,0-20.84-9.477-20.84-21.108v-49.738l-22.95-28.095c-0.886-1.078-0.886-2.682,0-3.76l22.95-28.088v-49.741
			c0-11.629,9.36-21.108,20.84-21.108c1.584,0,2.82,1.249,2.82,2.859v8.587c0,1.61-1.236,2.867-2.82,2.867
			c-3.713,0-6.715,3.038-6.715,6.795v54.933l-3.35,3.931l-16.955,20.755l16.955,20.758l3.35,3.931v54.934
			c0,3.759,3.002,6.801,6.715,6.801V483.5z"/>
		<path fill="#FFFFFF" d="M1056.244,397.077l-19.064-23.264v-51.702c0-3.581-2.824-6.438-6.361-6.438h-2.469
			c-2.121,0-3.883-1.795-3.883-3.94v-11.454c0-2.149,1.762-3.931,3.883-3.931h2.469c13.953,0,25.252,11.453,25.252,25.578v44.911
			l22.771,27.737c1.236,1.432,1.236,3.574,0,5.01l-22.771,27.73v44.904c0,14.142-11.299,25.589-25.252,25.589h-2.469
			c-2.121,0-3.883-1.786-3.883-3.935v-11.447c0-2.149,1.762-3.944,3.883-3.944h2.469c3.537,0,6.361-2.86,6.361-6.435v-51.712
			L1056.244,397.077z"/>
		<g>
			<path fill="#FEA621" d="M425.572,325.533c-0.525-2.328,1.243-4.471,3.531-4.471h11.837c1.763,0,3.35,1.25,3.7,3.039
				l20.126,105.382l20.126-105.382c0.357-1.789,1.941-3.039,3.71-3.039h11.831c2.294,0,4.057,2.143,3.527,4.471l-28.951,152.264
				c-0.354,1.789-1.944,3.039-3.71,3.039h-13.238c-1.766,0-3.353-1.25-3.707-3.039L425.4,325.533H425.572z"/>
			<path fill="#FEA621" d="M585.184,336.087c0,2.149-1.764,3.935-3.879,3.935H533.1v51.174h32.486c2.115,0,3.885,1.789,3.885,3.938
				v11.454c0,2.143-1.77,3.931-3.885,3.931H533.1v51.174h48.205c2.115,0,3.879,1.792,3.879,3.941v11.443
				c0,2.149-1.764,3.941-3.879,3.941h-63.388c-2.115,0-3.885-1.792-3.885-3.941V324.815c0-2.143,1.77-3.938,3.885-3.938h63.388
				c2.115,0,3.879,1.795,3.879,3.938v11.453V336.087z"/>
			<path fill="#FEA621" d="M668.693,374.736c0,17.352-12.182,31.851-28.422,35.249l28.07,65.662c1.062,2.507-0.707,5.37-3.355,5.37
				h-12.355c-1.588,0-3.002-0.893-3.531-2.331l-29.131-67.987h-3.355v66.559c0,2.149-1.762,3.938-3.881,3.938h-11.299
				c-2.119,0-3.889-1.789-3.889-3.938V324.994c0-2.149,1.77-3.932,3.889-3.932h31.777c19.594,0,35.482,16.1,35.482,35.961v17.534
				V374.736z M649.807,357.202c0-9.305-7.42-16.823-16.596-16.823h-16.598v51.177h16.598c9.176,0,16.596-7.516,16.596-16.819
				V357.202z"/>
			<path fill="#FEA621" d="M755.387,476.365c0.525,2.321-1.232,4.471-3.531,4.471h-11.826c-1.766,0-3.355-1.25-3.711-3.039
				l-9.182-48.132h-21.881l-9.191,48.132c-0.352,1.789-1.941,3.039-3.705,3.039h-11.83c-2.295,0-4.062-2.149-3.531-4.471
				l28.959-152.264c0.35-1.789,1.938-3.039,3.705-3.039h13.236c1.766,0,3.359,1.25,3.707,3.039l28.953,152.078L755.387,476.365z
				 M723.26,410.518l-7.242-38.109l-7.238,38.109H723.26z"/>
			<path fill="#FEA621" d="M836.605,374.736c0,17.352-12.184,31.851-28.424,35.249l28.07,65.662c1.062,2.507-0.703,5.37-3.352,5.37
				h-12.359c-1.588,0-3-0.893-3.535-2.331l-29.127-67.987h-3.359v66.559c0,2.149-1.762,3.938-3.881,3.938H769.34
				c-2.119,0-3.889-1.789-3.889-3.938V324.994c0-2.149,1.77-3.932,3.889-3.932h31.779c19.596,0,35.486,16.1,35.486,35.961v17.534
				V374.736z M817.713,357.202c0-9.305-7.412-16.823-16.594-16.823h-16.6v51.177h16.6c9.182,0,16.594-7.516,16.594-16.819V357.202z"
				/>
			<path fill="#FEA621" d="M887.984,321.413c19.594,0,35.492,16.109,35.492,35.971v87.845c0,19.865-15.898,35.968-35.492,35.968
				h-31.777c-2.117,0-3.889-1.789-3.889-3.938V324.994c0-2.149,1.771-3.932,3.889-3.932L887.984,321.413z M871.389,340.207v121.484
				h16.596c9.182,0,16.596-7.512,16.596-16.816v-87.852c0-9.305-7.414-16.816-16.596-16.816H871.389z"/>
			<path fill="#FEA621" d="M973.088,319.449c19.602,0,35.484,16.105,35.484,35.964v91.072c0,19.858-15.883,35.964-35.484,35.964
				c-19.596,0-35.484-16.105-35.484-35.964v-91.072C937.604,335.555,953.492,319.449,973.088,319.449z M956.496,355.413v91.072
				c0,9.304,7.41,16.81,16.592,16.81c9.18,0,16.596-7.506,16.596-16.81v-91.072c0-9.304-7.416-16.823-16.596-16.823
				C963.906,338.59,956.496,346.109,956.496,355.413z"/>
		</g>
	</g>
	<g>
		<path fill="#2E58A6" d="M58.688,333.696c16.188,4.977,23.595,15.282,23.595,39.796v56.864c0,16.704,8.448,26.296,25.704,26.296
			h6.336V500H93.902c-44.015,0-66.555-22.735-66.555-63.603v-64.32c0-11.37-5.981-16.704-15.497-16.704H0.231V312.02H11.85
			c9.516,0,15.497-5.323,15.497-16.69v-64.32c0-40.877,22.54-63.611,66.555-63.611h20.421v43.354h-6.336
			c-17.256,0-25.704,9.599-25.704,26.292V293.9C82.283,318.418,74.876,328.727,58.688,333.696"/>
		<path fill="#3180B9" d="M66.399,330.522c10.839-5.866,15.884-16.406,15.884-36.622V237.05c0-16.7,8.448-26.306,25.704-26.306
			h6.336v-43.347H93.895c-44.015,0-66.555,22.741-66.555,63.611v64.311c0,11.377-5.975,16.7-15.49,16.7H0.238v43.354
			c10.871-1.398,20.109-5.233,25.082-6.827c11.705-3.746,22.428-9.331,33.368-14.85C58.688,333.696,62.263,332.758,66.399,330.522"
			/>
	</g>
	<g>
		<g>
			<path fill="#FEA621" d="M254.544,267.922c-0.936-13.477-1.978-25.942-2.953-36.645c-2.083-22.821-3.964-37.736-3.964-37.736
				c0-13.259-36.566-21.617-89.925-24.749l8.236,329.016c34.73-3.978,63.5-13.812,75.912-34.258
				c10.124-16.711,14.297-63.424,15.345-100.003c0.139-6.11,0.231-12.359,0.231-18.642
				C257.467,318.788,256.181,291.801,254.544,267.922z"/>
		</g>
		<g>
			<path fill="#FEA621" d="M286.031,215.516c37.009-3.301,59.622,32.786,48.108,92.5c-13.215,68.486-61.598,76.18-80.875,60.943
				c0.14-6.106,0.245-12.359,0.245-18.638h0.04c58.358,19.091,67.407-80.779,43.582-97.027
				c-25.744-17.59-43.794,14.813-46.505,20.041c-0.949-13.484-1.991-25.942-2.96-36.652h0.14
				C247.806,236.683,258.799,217.976,286.031,215.516z"/>
			<path opacity="0.1" fill="#64127D" d="M253.357,228.973c-1.074,1.395-1.627,2.305-1.627,2.305h-0.139
				c0.976,10.702,2.018,23.168,2.953,36.645c0.685-1.316,2.348-4.357,4.854-7.893C259.789,249.65,259.51,238.601,253.357,228.973z"
				/>
			<path opacity="0.1" fill="#64127D" d="M279.114,363.044c-6.229,5.086-9.916,8.809-12.074,11.477
				c-4.769-1.051-8.974-3.019-12.311-5.65c0.14-6.11,0.238-12.359,0.238-18.638h0.04c58.364,19.094,67.414-80.776,43.582-97.027
				c-8.799-6.008-16.658-6.183-23.337-3.624c6.117-4.034,17.702-9.265,28.203-1.084
				C318.692,260.363,325.761,324.951,279.114,363.044z"/>
		</g>
	</g>
</g>
</svg>
