<?xml version="1.0" encoding="utf-8"?>
<!-- Generator: Adobe Illustrator 16.0.0, SVG Export Plug-In . SVG Version: 6.00 Build 0)  -->
<!DOCTYPE svg PUBLIC "-//W3C//DTD SVG 1.1//EN" "http://www.w3.org/Graphics/SVG/1.1/DTD/svg11.dtd">
<svg version="1.1" id="Calque_1" xmlns="http://www.w3.org/2000/svg" xmlns:xlink="http://www.w3.org/1999/xlink" x="0px" y="0px"
	 width="337px" height="500px" viewBox="0 0 337 500" enable-background="new 0 0 337 500" xml:space="preserve">
<g>
	<g>
		<path fill="#FFFFFF" d="M151.796,49.706c-2.07,2.599-4.192,4.94-6.818,7.278c-2.651,2.45-5.519,4.949-8.529,7.548
			c-5.906,5.284-12.479,11.289-17.419,19.587c-5.009,8.237-7.202,18.781-5.826,28.025c1.197,9.364,5.102,17.643,10.188,24.484
			c5.194,6.798,11.467,12.485,18.714,16.241c-8.62-13.599-14.257-28.353-13.473-41.492c0.416-6.54,2.42-12.088,6.061-17.074
			c3.613-5.039,8.851-9.761,14.696-14.873c11.292-9.635,27.186-25.125,25.179-46.786c-0.625-5.247-2.808-10.475-6.127-14.33
			c-3.283-3.896-7.222-6.523-10.997-8.425c-7.671-3.768-14.853-5.613-21.789-9.89c3.832,7.419,11.152,12.52,16.261,17.805
			c5.455,5.257,7.902,10.468,7.28,15.712C158.779,38.781,155.859,44.574,151.796,49.706z"/>
		<path fill="#FFFFFF" d="M99.161,141.902c-6.468-8.778-11.169-18.38-12.343-28.131c-1.181-9.73,1.812-19.031,8.11-26.134
			c6.53-7.36,15.425-14.515,21.693-24.137c3.122-4.761,5.879-10.468,5.739-16.797c-0.284-6.428-4.301-11.552-8.844-14.403
			c3.15,4.527,5.039,9.542,4.057,14.125c-0.879,4.576-3.812,8.623-7.035,12.419c-6.716,7.654-15.058,13.748-23.003,22.278
			c-3.846,4.603-6.943,10.098-8.429,16.096c-1.369,5.992-1.415,12.287,0.179,18.02C82.288,126.782,89.923,136.146,99.161,141.902z"
			/>
		<path fill="#FFFFFF" d="M161.305,94.726c-2.919,4.48-4.873,9.751-5.353,15.137c-0.417,5.37,0.258,10.732,2.103,15.527
			c3.528,9.645,10.326,17.425,18.52,22.252c-5.39-7.823-9.489-16.022-11.146-24.381c-1.697-8.378-0.305-16.479,4.07-23.075
			c4.384-6.61,11.816-12.436,18.198-19.75c3.203-3.644,6.186-7.889,7.893-12.756c1.662-4.887,1.689-10.247-0.061-14.707
			c-0.599,9.85-6.367,16.347-13.188,21.968C175.608,80.74,167.432,85.766,161.305,94.726z"/>
	</g>
	<g>
		<path fill="#2E58A6" d="M58.495,333.698c16.188,4.976,23.595,15.281,23.595,39.795v56.864c0,16.704,8.448,26.296,25.704,26.296
			h6.336V500H93.709c-44.016,0-66.555-22.734-66.555-63.602v-64.32c0-11.37-5.981-16.704-15.498-16.704H0.037v-43.354h11.619
			c9.517,0,15.498-5.323,15.498-16.69v-64.32c0-40.877,22.539-63.612,66.555-63.612h20.421v43.354h-6.336
			c-17.256,0-25.704,9.599-25.704,26.292v56.857C82.09,318.419,74.684,328.728,58.495,333.698"/>
		<path fill="#3180B9" d="M66.206,330.523c10.838-5.866,15.884-16.407,15.884-36.622v-56.851c0-16.701,8.448-26.306,25.704-26.306
			h6.336v-43.347H93.702c-44.016,0-66.555,22.742-66.555,63.612v64.31c0,11.378-5.975,16.701-15.491,16.701H0.044v43.354
			c10.872-1.398,20.11-5.234,25.083-6.827c11.704-3.747,22.428-9.331,33.368-14.849C58.495,333.698,62.069,332.759,66.206,330.523"
			/>
	</g>
	<g>
		<g>
			<path fill="#FEA621" d="M254.352,267.923c-0.937-13.477-1.978-25.942-2.953-36.645c-2.083-22.821-3.965-37.736-3.965-37.736
				c0-13.259-36.564-21.618-89.924-24.749l8.235,329.015c34.731-3.978,63.5-13.812,75.913-34.258
				c10.124-16.71,14.297-63.424,15.345-100.003c0.14-6.109,0.231-12.359,0.231-18.642
				C257.273,318.788,255.988,291.802,254.352,267.923z"/>
		</g>
		<g>
			<path fill="#FEA621" d="M285.839,215.516c37.009-3.3,59.621,32.787,48.108,92.5c-13.216,68.485-61.6,76.18-80.875,60.943
				c0.138-6.106,0.244-12.359,0.244-18.638h0.04c58.357,19.091,67.407-80.779,43.582-97.026
				c-25.744-17.591-43.794,14.812-46.506,20.039c-0.948-13.482-1.989-25.941-2.959-36.651h0.139
				C247.612,236.684,258.607,217.976,285.839,215.516z"/>
			<path opacity="0.1" fill="#64127D" d="M253.164,228.973c-1.074,1.396-1.626,2.305-1.626,2.305h-0.14
				c0.976,10.703,2.017,23.168,2.953,36.645c0.685-1.316,2.347-4.357,4.854-7.893C259.595,249.651,259.317,238.602,253.164,228.973z
				"/>
			<path opacity="0.1" fill="#64127D" d="M278.921,363.046c-6.229,5.084-9.916,8.808-12.075,11.477
				c-4.767-1.052-8.974-3.02-12.309-5.651c0.138-6.11,0.237-12.358,0.237-18.638h0.04c58.365,19.094,67.414-80.776,43.582-97.027
				c-8.799-6.008-16.658-6.183-23.338-3.624c6.117-4.034,17.703-9.265,28.204-1.085
				C318.499,260.364,325.568,324.952,278.921,363.046z"/>
		</g>
	</g>
</g>
</svg>
